<svg width="1595" height="307" viewBox="0 0 1595 307" fill="none" xmlns="http://www.w3.org/2000/svg">
<g opacity="0.6">
<mask id="path-1-inside-1_8047_440" fill="white">
<path d="M393.442 50.8857H200.342L288.816 71.4189L154.37 306.211H0L149.131 50.8857H0.884766L30.6211 0H423.179L393.442 50.8857ZM488.695 227.677L365.999 255.325H564.649L713.309 0H861.528V0.450195L712.419 255.776L628.179 306.211H350.659L318.761 255.776L469.586 0H620.868L488.695 227.677ZM1273.36 50.8857H926.922L1018.45 71.4189L985.023 127.438H1228.76L1124.69 306.211H729.666L759.399 255.325H1004.34L1049.07 178.773H803.156L908.516 0H1303.09L1273.36 50.8857ZM1368.8 227.677L1248.62 255.325H1594.29L1564.53 306.211H1170.61L1349.65 0H1500.68L1368.8 227.677Z"/>
</mask>
<path d="M393.442 50.8857V51.8857H394.016L394.306 51.3903L393.442 50.8857ZM200.342 50.8857V49.8857L200.116 51.8599L200.342 50.8857ZM288.816 71.4189L289.684 71.9159L290.352 70.7489L289.042 70.4448L288.816 71.4189ZM154.37 306.211V307.211H154.95L155.238 306.708L154.37 306.211ZM0 306.211L-0.863497 305.707L-1.74216 307.211H0V306.211ZM149.131 50.8857L149.994 51.3901L150.873 49.8857H149.131V50.8857ZM0.884766 50.8857L0.0213782 50.3812L-0.857837 51.8857H0.884766V50.8857ZM30.6211 0V-1H30.0472L29.7577 -0.504542L30.6211 0ZM423.179 0L424.042 0.504542L424.921 -1H423.179V0ZM488.695 227.677L488.915 228.652L489.341 228.556L489.56 228.179L488.695 227.677ZM365.999 255.325L365.779 254.35L365.999 256.325V255.325ZM564.649 255.325V256.325H565.224L565.514 255.828L564.649 255.325ZM713.309 0V-1H712.734L712.444 -0.503162L713.309 0ZM861.528 0H862.528V-1H861.528V0ZM861.528 0.450195L862.392 0.954493L862.528 0.72081V0.450195H861.528ZM712.419 255.776L712.933 256.634L713.153 256.502L713.282 256.281L712.419 255.776ZM628.179 306.211V307.211H628.455L628.692 307.069L628.179 306.211ZM350.659 306.211L349.814 306.745L350.108 307.211H350.659V306.211ZM318.761 255.776L317.899 255.268L317.589 255.795L317.916 256.311L318.761 255.776ZM469.586 0V-1H469.015L468.725 -0.507942L469.586 0ZM620.868 0L621.733 0.50206L622.605 -1H620.868V0ZM1273.36 50.8857V51.8857H1273.93L1274.22 51.3902L1273.36 50.8857ZM926.922 50.8857V49.8857L926.703 51.8615L926.922 50.8857ZM1018.45 71.4189L1019.31 71.9314L1020.02 70.7455L1018.67 70.4432L1018.45 71.4189ZM985.023 127.438L984.165 126.925L983.262 128.438H985.023V127.438ZM1228.76 127.438L1229.62 127.941L1230.5 126.438H1228.76V127.438ZM1124.69 306.211V307.211H1125.27L1125.56 306.714L1124.69 306.211ZM729.666 306.211L728.803 305.706L727.923 307.211H729.666V306.211ZM759.399 255.325V254.325H758.826L758.536 254.821L759.399 255.325ZM1004.34 255.325V256.325H1004.92L1005.21 255.83L1004.34 255.325ZM1049.07 178.773L1049.93 179.278L1050.81 177.773H1049.07V178.773ZM803.156 178.773L802.295 178.266L801.406 179.773H803.156V178.773ZM908.516 0V-1H907.944L907.654 -0.507731L908.516 0ZM1303.09 0L1303.96 0.504504L1304.84 -1H1303.09V0ZM1368.8 227.677L1369.02 228.651L1369.45 228.554L1369.67 228.178L1368.8 227.677ZM1248.62 255.325L1248.4 254.351L1248.62 256.325V255.325ZM1594.29 255.325L1595.16 255.83L1596.04 254.325H1594.29V255.325ZM1564.53 306.211V307.211H1565.1L1565.39 306.716L1564.53 306.211ZM1170.61 306.211L1169.75 305.706L1168.87 307.211H1170.61V306.211ZM1349.65 0V-1H1349.07L1348.78 -0.504746L1349.65 0ZM1500.68 0L1501.54 0.501219L1502.41 -1H1500.68V0ZM393.442 50.8857V49.8857H200.342V50.8857V51.8857H393.442V50.8857ZM200.342 50.8857L200.116 51.8599L288.59 72.3931L288.816 71.4189L289.042 70.4448L200.568 49.9116L200.342 50.8857ZM288.816 71.4189L287.949 70.922L153.502 305.714L154.37 306.211L155.238 306.708L289.684 71.9159L288.816 71.4189ZM154.37 306.211V305.211H0V306.211V307.211H154.37V306.211ZM0 306.211L0.863497 306.715L149.994 51.3901L149.131 50.8857L148.267 50.3814L-0.863497 305.707L0 306.211ZM149.131 50.8857V49.8857H0.884766V50.8857V51.8857H149.131V50.8857ZM0.884766 50.8857L1.74815 51.3903L31.4845 0.504542L30.6211 0L29.7577 -0.504542L0.0213782 50.3812L0.884766 50.8857ZM30.6211 0V1H423.179V0V-1H30.6211V0ZM423.179 0L422.315 -0.504542L392.579 50.3812L393.442 50.8857L394.306 51.3903L424.042 0.504542L423.179 0ZM488.695 227.677L488.475 226.701L365.779 254.35L365.999 255.325L366.219 256.301L488.915 228.652L488.695 227.677ZM365.999 255.325V256.325H564.649V255.325V254.325H365.999V255.325ZM564.649 255.325L565.514 255.828L714.173 0.503162L713.309 0L712.444 -0.503162L563.785 254.822L564.649 255.325ZM713.309 0V1H861.528V0V-1H713.309V0ZM861.528 0H860.528V0.450195H861.528H862.528V0H861.528ZM861.528 0.450195L860.665 -0.0541024L711.555 255.272L712.419 255.776L713.282 256.281L862.392 0.954493L861.528 0.450195ZM712.419 255.776L711.905 254.918L627.665 305.353L628.179 306.211L628.692 307.069L712.933 256.634L712.419 255.776ZM628.179 306.211V305.211H350.659V306.211V307.211H628.179V306.211ZM350.659 306.211L351.504 305.676L319.606 255.242L318.761 255.776L317.916 256.311L349.814 306.745L350.659 306.211ZM318.761 255.776L319.622 256.284L470.447 0.507942L469.586 0L468.725 -0.507942L317.899 255.268L318.761 255.776ZM469.586 0V1H620.868V0V-1H469.586V0ZM620.868 0L620.003 -0.50206L487.83 227.175L488.695 227.677L489.56 228.179L621.733 0.50206L620.868 0ZM1273.36 50.8857V49.8857H926.922V50.8857V51.8857H1273.36V50.8857ZM926.922 50.8857L926.703 51.8615L1018.23 72.3947L1018.45 71.4189L1018.67 70.4432L927.141 49.91L926.922 50.8857ZM1018.45 71.4189L1017.59 70.9065L984.165 126.925L985.023 127.438L985.882 127.95L1019.31 71.9314L1018.45 71.4189ZM985.023 127.438V128.438H1228.76V127.438V126.438H985.023V127.438ZM1228.76 127.438L1227.89 126.934L1123.83 305.708L1124.69 306.211L1125.56 306.714L1229.62 127.941L1228.76 127.438ZM1124.69 306.211V305.211H729.666V306.211V307.211H1124.69V306.211ZM729.666 306.211L730.529 306.715L760.263 255.83L759.399 255.325L758.536 254.821L728.803 305.706L729.666 306.211ZM759.399 255.325V256.325H1004.34V255.325V254.325H759.399V255.325ZM1004.34 255.325L1005.21 255.83L1049.93 179.278L1049.07 178.773L1048.2 178.269L1003.48 254.821L1004.34 255.325ZM1049.07 178.773V177.773H803.156V178.773V179.773H1049.07V178.773ZM803.156 178.773L804.018 179.281L909.377 0.507731L908.516 0L907.654 -0.507731L802.295 178.266L803.156 178.773ZM908.516 0V1H1303.09V0V-1H908.516V0ZM1303.09 0L1302.23 -0.504504L1272.5 50.3812L1273.36 50.8857L1274.22 51.3902L1303.96 0.504504L1303.09 0ZM1368.8 227.677L1368.58 226.702L1248.4 254.351L1248.62 255.325L1248.85 256.3L1369.02 228.651L1368.8 227.677ZM1248.62 255.325V256.325H1594.29V255.325V254.325H1248.62V255.325ZM1594.29 255.325L1593.43 254.82L1563.66 305.706L1564.53 306.211L1565.39 306.716L1595.16 255.83L1594.29 255.325ZM1564.53 306.211V305.211H1170.61V306.211V307.211H1564.53V306.211ZM1170.61 306.211L1171.47 306.716L1350.51 0.504746L1349.65 0L1348.78 -0.504746L1169.75 305.706L1170.61 306.211ZM1349.65 0V1H1500.68V0V-1H1349.65V0ZM1500.68 0L1499.81 -0.501219L1367.94 227.176L1368.8 227.677L1369.67 228.178L1501.54 0.501219L1500.68 0Z" fill="url(#paint0_linear_8047_440)" mask="url(#path-1-inside-1_8047_440)"/>
</g>
<defs>
<linearGradient id="paint0_linear_8047_440" x1="797.146" y1="0" x2="797.146" y2="306.211" gradientUnits="userSpaceOnUse">
<stop stop-color="#FF4B23"/>
<stop offset="1" stop-color="#52F9F9"/>
</linearGradient>
</defs>
</svg>
